<svg width="24" height="24" viewBox="0 0 24 24" fill="none" xmlns="http://www.w3.org/2000/svg">
<path fill-rule="evenodd" clip-rule="evenodd" d="M21.2966 15.1566L22.0566 20.4366C22.1176 20.8813 21.9663 21.3289 21.6479 21.6454C21.3295 21.9618 20.8809 22.1104 20.4366 22.0466L15.1566 21.2866C14.4409 21.1879 13.7771 20.8578 13.2666 20.3466L3.52656 10.5966C2.22678 9.34119 1.7055 7.48218 2.16308 5.73403C2.62066 3.98588 3.98588 2.62066 5.73403 2.16308C7.48218 1.7055 9.34119 2.22678 10.5966 3.52656L20.3566 13.2666C20.8678 13.7771 21.1979 14.4409 21.2966 15.1566ZM10.7066 11.7666C10.9994 12.059 11.4737 12.059 11.7666 11.7666C12.059 11.4737 12.059 10.9994 11.7666 10.7066L7.55656 6.49656C7.26105 6.22121 6.80055 6.22933 6.51494 6.51494C6.22933 6.80056 6.22121 7.26105 6.49656 7.55656L10.7066 11.7666Z" fill="#F5F5F5"/>
</svg>
